<svg xmlns="http://www.w3.org/2000/svg" xmlns:xlink="http://www.w3.org/1999/xlink" width="400" zoomAndPan="magnify" viewBox="0 0 300 61.499998" height="82" preserveAspectRatio="xMidYMid meet" version="1.0"><defs><g/><clipPath id="a3971e5b25"><rect x="0" width="275" y="0" height="43"/></clipPath></defs><g transform="matrix(1, 0, 0, 1, 12, 9)"><g clip-path="url(#a3971e5b25)"><g fill="#000000" fill-opacity="1"><g transform="translate(0.992919, 35.303365)"><g><path d="M 1.40625 0 L 25.890625 0 C 26.742188 0 27.570312 -0.15625 28.375 -0.46875 C 29.15625 -0.75 29.84375 -1.164062 30.4375 -1.71875 C 31.03125 -2.257812 31.507812 -2.921875 31.875 -3.703125 C 32.238281 -4.453125 32.421875 -5.304688 32.421875 -6.265625 L 32.421875 -9.453125 C 32.421875 -9.691406 32.382812 -9.96875 32.3125 -10.28125 C 32.226562 -10.59375 32.125 -10.898438 32 -11.203125 C 31.863281 -11.515625 31.691406 -11.816406 31.484375 -12.109375 C 31.253906 -12.367188 31.007812 -12.585938 30.75 -12.765625 C 30.976562 -12.921875 31.195312 -13.140625 31.40625 -13.421875 C 31.613281 -13.679688 31.796875 -13.96875 31.953125 -14.28125 C 32.085938 -14.59375 32.207031 -14.914062 32.3125 -15.25 C 32.382812 -15.5625 32.421875 -15.835938 32.421875 -16.078125 L 32.421875 -19.265625 C 32.421875 -20.222656 32.238281 -21.09375 31.875 -21.875 C 31.507812 -22.625 31.03125 -23.269531 30.4375 -23.8125 C 29.84375 -24.363281 29.15625 -24.796875 28.375 -25.109375 C 27.570312 -25.390625 26.742188 -25.53125 25.890625 -25.53125 L 1.40625 -25.53125 Z M 9.03125 -7.4375 L 9.03125 -9.03125 L 24.203125 -9.03125 C 24.597656 -8.894531 24.796875 -8.632812 24.796875 -8.25 C 24.796875 -8.09375 24.753906 -7.9375 24.671875 -7.78125 C 24.566406 -7.601562 24.398438 -7.488281 24.171875 -7.4375 Z M 24.203125 -18.09375 C 24.441406 -18.039062 24.597656 -17.953125 24.671875 -17.828125 C 24.722656 -17.691406 24.765625 -17.519531 24.796875 -17.3125 C 24.796875 -16.875 24.585938 -16.601562 24.171875 -16.5 L 9.03125 -16.5 L 9.03125 -18.09375 Z M 24.203125 -18.09375 "/></g></g></g><g fill="#000000" fill-opacity="1"><g transform="translate(34.07209, 35.303365)"><g><path d="M 27.28125 -16.46875 L 9.03125 -16.46875 L 9.03125 -18.09375 L 31.640625 -18.09375 L 31.640625 -25.53125 L 1.40625 -25.53125 L 1.40625 0 L 31.640625 0 L 31.640625 -7.4375 L 9.03125 -7.4375 L 9.03125 -9.0625 L 27.28125 -9.0625 Z M 27.28125 -16.46875 "/></g></g></g><g fill="#000000" fill-opacity="1"><g transform="translate(66.372931, 35.303365)"><g><path d="M 29.34375 0 L 38.453125 0 L 24.125 -23.9375 C 23.425781 -24.632812 22.675781 -25.078125 21.875 -25.265625 C 21.070312 -25.441406 20.359375 -25.53125 19.734375 -25.53125 C 19.109375 -25.53125 18.394531 -25.441406 17.59375 -25.265625 C 16.789062 -25.078125 16.035156 -24.632812 15.328125 -23.9375 L 1.015625 0 L 10.125 0 L 12.109375 -3.3125 L 27.328125 -3.3125 Z M 19.734375 -16.1875 L 23.078125 -10.546875 L 16.34375 -10.546875 Z M 19.734375 -16.1875 "/></g></g></g><g fill="#000000" fill-opacity="1"><g transform="translate(105.095035, 35.303365)"><g><path d="M 12.96875 -18.09375 L 1.40625 -18.09375 L 1.40625 -25.53125 L 32.109375 -25.53125 L 32.109375 -18.09375 L 20.546875 -18.09375 L 20.546875 0 L 12.96875 0 Z M 12.96875 -18.09375 "/></g></g></g><g fill="#000000" fill-opacity="1"><g transform="translate(137.862876, 35.303365)"><g><path d="M 1.40625 0 L 9.03125 0 L 9.03125 -7.15625 L 25.890625 -7.15625 C 26.742188 -7.15625 27.570312 -7.3125 28.375 -7.625 C 29.15625 -7.914062 29.84375 -8.332031 30.4375 -8.875 C 31.03125 -9.414062 31.507812 -10.078125 31.875 -10.859375 C 32.238281 -11.609375 32.421875 -12.460938 32.421875 -13.421875 L 32.421875 -19.265625 C 32.421875 -20.222656 32.238281 -21.09375 31.875 -21.875 C 31.507812 -22.625 31.03125 -23.269531 30.4375 -23.8125 C 29.84375 -24.363281 29.15625 -24.796875 28.375 -25.109375 C 27.570312 -25.390625 26.742188 -25.53125 25.890625 -25.53125 L 1.40625 -25.53125 Z M 23.515625 -18.09375 C 23.816406 -18.039062 24.097656 -17.910156 24.359375 -17.703125 C 24.597656 -17.492188 24.742188 -17.289062 24.796875 -17.09375 L 24.796875 -15.71875 C 24.796875 -15.488281 24.664062 -15.269531 24.40625 -15.0625 C 24.113281 -14.832031 23.816406 -14.691406 23.515625 -14.640625 L 9.03125 -14.640625 L 9.03125 -18.09375 Z M 23.515625 -18.09375 "/></g></g></g><g fill="#000000" fill-opacity="1"><g transform="translate(170.942046, 35.303365)"><g><path d="M 29.34375 0 L 38.453125 0 L 24.125 -23.9375 C 23.425781 -24.632812 22.675781 -25.078125 21.875 -25.265625 C 21.070312 -25.441406 20.359375 -25.53125 19.734375 -25.53125 C 19.109375 -25.53125 18.394531 -25.441406 17.59375 -25.265625 C 16.789062 -25.078125 16.035156 -24.632812 15.328125 -23.9375 L 1.015625 0 L 10.125 0 L 12.109375 -3.3125 L 27.328125 -3.3125 Z M 19.734375 -16.1875 L 23.078125 -10.546875 L 16.34375 -10.546875 Z M 19.734375 -16.1875 "/></g></g></g><g fill="#000000" fill-opacity="1"><g transform="translate(209.664145, 35.303365)"><g><path d="M 9.6875 -16.46875 C 9.25 -16.59375 9.03125 -16.863281 9.03125 -17.28125 C 9.050781 -17.507812 9.101562 -17.691406 9.1875 -17.828125 C 9.257812 -17.953125 9.425781 -18.039062 9.6875 -18.09375 L 31.640625 -18.09375 L 31.640625 -25.53125 L 7.9375 -25.53125 C 7.082031 -25.53125 6.265625 -25.390625 5.484375 -25.109375 C 4.679688 -24.796875 3.984375 -24.363281 3.390625 -23.8125 C 2.785156 -23.269531 2.304688 -22.625 1.953125 -21.875 C 1.585938 -21.09375 1.40625 -20.222656 1.40625 -19.265625 L 1.40625 -15.328125 C 1.40625 -14.367188 1.585938 -13.515625 1.953125 -12.765625 C 2.304688 -11.984375 2.785156 -11.320312 3.390625 -10.78125 C 3.984375 -10.238281 4.679688 -9.820312 5.484375 -9.53125 C 6.265625 -9.21875 7.082031 -9.0625 7.9375 -9.0625 L 23.359375 -9.0625 C 23.796875 -8.9375 24.015625 -8.679688 24.015625 -8.296875 C 23.984375 -8.140625 23.929688 -7.96875 23.859375 -7.78125 C 23.785156 -7.601562 23.617188 -7.488281 23.359375 -7.4375 L 1.40625 -7.4375 L 1.40625 0 L 25.109375 0 C 25.960938 0 26.789062 -0.15625 27.59375 -0.46875 C 28.375 -0.75 29.0625 -1.164062 29.65625 -1.71875 C 30.25 -2.257812 30.726562 -2.921875 31.09375 -3.703125 C 31.457031 -4.453125 31.640625 -5.304688 31.640625 -6.265625 L 31.640625 -10.203125 C 31.640625 -11.160156 31.457031 -12.03125 31.09375 -12.8125 C 30.726562 -13.5625 30.25 -14.207031 29.65625 -14.75 C 29.0625 -15.289062 28.375 -15.71875 27.59375 -16.03125 C 26.789062 -16.320312 25.960938 -16.46875 25.109375 -16.46875 Z M 9.6875 -16.46875 "/></g></g></g><g fill="#000000" fill-opacity="1"><g transform="translate(241.964991, 35.303365)"><g><path d="M 9.6875 -16.46875 C 9.25 -16.59375 9.03125 -16.863281 9.03125 -17.28125 C 9.050781 -17.507812 9.101562 -17.691406 9.1875 -17.828125 C 9.257812 -17.953125 9.425781 -18.039062 9.6875 -18.09375 L 31.640625 -18.09375 L 31.640625 -25.53125 L 7.9375 -25.53125 C 7.082031 -25.53125 6.265625 -25.390625 5.484375 -25.109375 C 4.679688 -24.796875 3.984375 -24.363281 3.390625 -23.8125 C 2.785156 -23.269531 2.304688 -22.625 1.953125 -21.875 C 1.585938 -21.09375 1.40625 -20.222656 1.40625 -19.265625 L 1.40625 -15.328125 C 1.40625 -14.367188 1.585938 -13.515625 1.953125 -12.765625 C 2.304688 -11.984375 2.785156 -11.320312 3.390625 -10.78125 C 3.984375 -10.238281 4.679688 -9.820312 5.484375 -9.53125 C 6.265625 -9.21875 7.082031 -9.0625 7.9375 -9.0625 L 23.359375 -9.0625 C 23.796875 -8.9375 24.015625 -8.679688 24.015625 -8.296875 C 23.984375 -8.140625 23.929688 -7.96875 23.859375 -7.78125 C 23.785156 -7.601562 23.617188 -7.488281 23.359375 -7.4375 L 1.40625 -7.4375 L 1.40625 0 L 25.109375 0 C 25.960938 0 26.789062 -0.15625 27.59375 -0.46875 C 28.375 -0.75 29.0625 -1.164062 29.65625 -1.71875 C 30.25 -2.257812 30.726562 -2.921875 31.09375 -3.703125 C 31.457031 -4.453125 31.640625 -5.304688 31.640625 -6.265625 L 31.640625 -10.203125 C 31.640625 -11.160156 31.457031 -12.03125 31.09375 -12.8125 C 30.726562 -13.5625 30.25 -14.207031 29.65625 -14.75 C 29.0625 -15.289062 28.375 -15.71875 27.59375 -16.03125 C 26.789062 -16.320312 25.960938 -16.46875 25.109375 -16.46875 Z M 9.6875 -16.46875 "/></g></g></g></g></g></svg>